<svg width="13" height="13" viewBox="0 0 13 13" fill="none" xmlns="http://www.w3.org/2000/svg">
<path d="M11.9053 5.48047H6.61279V7.65576H9.63623C9.50586 8.35889 9.11035 8.95361 8.51416 9.35205C8.01025 9.68897 7.36719 9.88818 6.61133 9.88818C5.14795 9.88818 3.91016 8.89941 3.46777 7.5708C3.35645 7.23389 3.29199 6.87354 3.29199 6.50293C3.29199 6.13232 3.35645 5.77197 3.46777 5.43506C3.91162 4.10791 5.14941 3.11914 6.61279 3.11914C7.4375 3.11914 8.17725 3.40332 8.76025 3.95996L10.3716 2.34717C9.39746 1.43896 8.12744 0.882324 6.61279 0.882324C4.41699 0.882324 2.51709 2.14209 1.59277 3.979C1.21191 4.73779 0.995117 5.59619 0.995117 6.50439C0.995117 7.4126 1.21191 8.26953 1.59277 9.02832C2.51709 10.8652 4.41699 12.125 6.61279 12.125C8.13037 12.125 9.40186 11.6211 10.3306 10.7627C11.3926 9.78418 12.0063 8.34277 12.0063 6.63037C12.0063 6.23193 11.9712 5.84961 11.9053 5.48047Z" fill="#999999"/>
</svg>
