<svg width="13" height="13" viewBox="0 0 13 13" fill="none" xmlns="http://www.w3.org/2000/svg">
<path d="M6.49995 3.49561C4.83735 3.49561 3.49555 4.83741 3.49555 6.50001C3.49555 8.16261 4.83735 9.5044 6.49995 9.5044C8.16254 9.5044 9.50434 8.16261 9.50434 6.50001C9.50434 4.83741 8.16254 3.49561 6.49995 3.49561ZM6.49995 8.45265C5.42475 8.45265 4.54731 7.5752 4.54731 6.50001C4.54731 5.42481 5.42475 4.54737 6.49995 4.54737C7.57514 4.54737 8.45258 5.42481 8.45258 6.50001C8.45258 7.5752 7.57514 8.45265 6.49995 8.45265ZM9.62739 2.67237C9.23921 2.67237 8.92573 2.98585 8.92573 3.37403C8.92573 3.76222 9.23921 4.07569 9.62739 4.07569C10.0156 4.07569 10.329 3.76368 10.329 3.37403C10.3292 3.28186 10.3111 3.19056 10.2759 3.10538C10.2407 3.0202 10.189 2.9428 10.1238 2.87763C10.0586 2.81245 9.98122 2.76077 9.89604 2.72555C9.81086 2.69033 9.71956 2.67226 9.62739 2.67237ZM12.3564 6.50001C12.3564 5.69141 12.3637 4.89015 12.3183 4.08302C12.2729 3.14552 12.059 2.31349 11.3735 1.62794C10.6865 0.940926 9.8559 0.728524 8.9184 0.683114C8.10981 0.637704 7.30854 0.645028 6.50141 0.645028C5.69282 0.645028 4.89155 0.637704 4.08442 0.683114C3.14692 0.728524 2.31489 0.942391 1.62934 1.62794C0.94233 2.31495 0.729928 3.14552 0.684518 4.08302C0.639108 4.89161 0.646432 5.69288 0.646432 6.50001C0.646432 7.30714 0.639108 8.10987 0.684518 8.917C0.729928 9.8545 0.943795 10.6865 1.62934 11.3721C2.31635 12.0591 3.14692 12.2715 4.08442 12.3169C4.89301 12.3623 5.69428 12.355 6.50141 12.355C7.31001 12.355 8.11128 12.3623 8.9184 12.3169C9.8559 12.2715 10.6879 12.0576 11.3735 11.3721C12.0605 10.6851 12.2729 9.8545 12.3183 8.917C12.3652 8.10987 12.3564 7.3086 12.3564 6.50001ZM11.0673 9.95411C10.9604 10.2207 10.8315 10.4199 10.6249 10.625C10.4184 10.8316 10.2207 10.9605 9.95405 11.0674C9.18354 11.3735 7.35395 11.3047 6.49995 11.3047C5.64594 11.3047 3.81489 11.3735 3.04438 11.0689C2.77778 10.9619 2.57856 10.833 2.37348 10.6265C2.16694 10.4199 2.03803 10.2222 1.9311 9.95558C1.62641 9.1836 1.69526 7.35401 1.69526 6.50001C1.69526 5.646 1.62641 3.81495 1.9311 3.04444C2.03803 2.77784 2.16694 2.57862 2.37348 2.37354C2.58003 2.16847 2.77778 2.03809 3.04438 1.93116C3.81489 1.62647 5.64594 1.69532 6.49995 1.69532C7.35395 1.69532 9.18501 1.62647 9.95551 1.93116C10.2221 2.03809 10.4213 2.167 10.6264 2.37354C10.833 2.58009 10.9619 2.77784 11.0688 3.04444C11.3735 3.81495 11.3046 5.646 11.3046 6.50001C11.3046 7.35401 11.3735 9.1836 11.0673 9.95411Z" fill="#999999"/>
</svg>
