<svg xmlns="http://www.w3.org/2000/svg" width="22" height="20" viewBox="0 0 22 20">
  <defs>
    <style>
      .cls-1 {
        fill: #fff;
        fill-rule: evenodd;
      }
    </style>
  </defs>
  <path id="Forma_1" data-name="Forma 1" class="cls-1" d="M800.814,585.629h2.333l3.323,12.038a0.815,0.815,0,0,0,.787.6h10.214a0.814,0.814,0,0,0,.746-0.489l3.717-8.561a0.827,0.827,0,0,0-.068-0.775,0.811,0.811,0,0,0-.678-0.366H809.9a0.816,0.816,0,0,0,0,1.631H819.94l-3.011,6.929h-9.062L804.544,584.6a0.814,0.814,0,0,0-.787-0.6h-2.943A0.816,0.816,0,0,0,800.814,585.629ZM806.484,604a1.848,1.848,0,1,0-1.845-1.848A1.849,1.849,0,0,0,806.484,604Zm11.53,0h0.135A1.907,1.907,0,1,0,818.014,604Z" transform="translate(-800 -584)"/>
</svg>
