<svg width="15" height="15" viewBox="0 0 15 15" fill="none" xmlns="http://www.w3.org/2000/svg">
<path d="M13.5305 12.4218C12.6381 10.879 11.2629 9.77274 9.65803 9.24832C10.4519 8.77574 11.0686 8.05563 11.4136 7.19859C11.7586 6.34155 11.8127 5.39496 11.5676 4.5042C11.3226 3.61343 10.7919 2.82773 10.057 2.26777C9.32221 1.70781 8.42389 1.40454 7.50002 1.40454C6.57616 1.40454 5.67783 1.70781 4.943 2.26777C4.20818 2.82773 3.67748 3.61343 3.43241 4.5042C3.18734 5.39496 3.24144 6.34155 3.58642 7.19859C3.9314 8.05563 4.54817 8.77574 5.34201 9.24832C3.73713 9.77215 2.36194 10.8784 1.46955 12.4218C1.43683 12.4751 1.41512 12.5345 1.40571 12.5964C1.39631 12.6583 1.39939 12.7214 1.41478 12.7821C1.43017 12.8428 1.45756 12.8997 1.49533 12.9497C1.5331 12.9996 1.58048 13.0414 1.63468 13.0727C1.68889 13.104 1.74881 13.1242 1.81092 13.1319C1.87304 13.1397 1.93607 13.135 1.99632 13.118C2.05657 13.101 2.11281 13.0721 2.16171 13.0331C2.21062 12.994 2.25121 12.9455 2.28108 12.8905C3.38498 10.9827 5.33615 9.84363 7.50002 9.84363C9.66389 9.84363 11.6151 10.9827 12.719 12.8905C12.7488 12.9455 12.7894 12.994 12.8383 13.0331C12.8872 13.0721 12.9435 13.101 13.0037 13.118C13.064 13.135 13.127 13.1397 13.1891 13.1319C13.2512 13.1242 13.3112 13.104 13.3654 13.0727C13.4196 13.0414 13.4669 12.9996 13.5047 12.9497C13.5425 12.8997 13.5699 12.8428 13.5853 12.7821C13.6007 12.7214 13.6037 12.6583 13.5943 12.5964C13.5849 12.5345 13.5632 12.4751 13.5305 12.4218ZM4.21877 5.62488C4.21877 4.97591 4.41121 4.34152 4.77176 3.80192C5.13231 3.26232 5.64477 2.84176 6.24434 2.59341C6.84391 2.34506 7.50366 2.28008 8.14016 2.40668C8.77666 2.53329 9.36132 2.8458 9.82021 3.30469C10.2791 3.76358 10.5916 4.34824 10.7182 4.98474C10.8448 5.62125 10.7799 6.28099 10.5315 6.88056C10.2832 7.48013 9.86258 7.9926 9.32299 8.35314C8.78339 8.71369 8.14899 8.90613 7.50002 8.90613C6.63007 8.9052 5.79601 8.5592 5.18086 7.94405C4.5657 7.3289 4.2197 6.49484 4.21877 5.62488Z" fill="#222933"/>
</svg>
