<svg width="15" height="14" viewBox="0 0 15 14" fill="none" xmlns="http://www.w3.org/2000/svg">
<path d="M10.625 7.75C10.7908 7.75 10.9497 7.68415 11.0669 7.56694C11.1842 7.44973 11.25 7.29076 11.25 7.125C11.25 6.95924 11.1842 6.80027 11.0669 6.68306C10.9497 6.56585 10.7908 6.5 10.625 6.5C10.4592 6.5 10.3003 6.56585 10.1831 6.68306C10.0658 6.80027 10 6.95924 10 7.125C10 7.29076 10.0658 7.44973 10.1831 7.56694C10.3003 7.68415 10.4592 7.75 10.625 7.75ZM10.625 10.25C10.7908 10.25 10.9497 10.1842 11.0669 10.0669C11.1842 9.94973 11.25 9.79076 11.25 9.625C11.25 9.45924 11.1842 9.30027 11.0669 9.18306C10.9497 9.06585 10.7908 9 10.625 9C10.4592 9 10.3003 9.06585 10.1831 9.18306C10.0658 9.30027 10 9.45924 10 9.625C10 9.79076 10.0658 9.94973 10.1831 10.0669C10.3003 10.1842 10.4592 10.25 10.625 10.25ZM8.125 7.125C8.125 7.29076 8.05915 7.44973 7.94194 7.56694C7.82473 7.68415 7.66576 7.75 7.5 7.75C7.33424 7.75 7.17527 7.68415 7.05806 7.56694C6.94085 7.44973 6.875 7.29076 6.875 7.125C6.875 6.95924 6.94085 6.80027 7.05806 6.68306C7.17527 6.56585 7.33424 6.5 7.5 6.5C7.66576 6.5 7.82473 6.56585 7.94194 6.68306C8.05915 6.80027 8.125 6.95924 8.125 7.125ZM8.125 9.625C8.125 9.79076 8.05915 9.94973 7.94194 10.0669C7.82473 10.1842 7.66576 10.25 7.5 10.25C7.33424 10.25 7.17527 10.1842 7.05806 10.0669C6.94085 9.94973 6.875 9.79076 6.875 9.625C6.875 9.45924 6.94085 9.30027 7.05806 9.18306C7.17527 9.06585 7.33424 9 7.5 9C7.66576 9 7.82473 9.06585 7.94194 9.18306C8.05915 9.30027 8.125 9.45924 8.125 9.625ZM4.375 7.75C4.54076 7.75 4.69973 7.68415 4.81694 7.56694C4.93415 7.44973 5 7.29076 5 7.125C5 6.95924 4.93415 6.80027 4.81694 6.68306C4.69973 6.56585 4.54076 6.5 4.375 6.5C4.20924 6.5 4.05027 6.56585 3.93306 6.68306C3.81585 6.80027 3.75 6.95924 3.75 7.125C3.75 7.29076 3.81585 7.44973 3.93306 7.56694C4.05027 7.68415 4.20924 7.75 4.375 7.75ZM4.375 10.25C4.54076 10.25 4.69973 10.1842 4.81694 10.0669C4.93415 9.94973 5 9.79076 5 9.625C5 9.45924 4.93415 9.30027 4.81694 9.18306C4.69973 9.06585 4.54076 9 4.375 9C4.20924 9 4.05027 9.06585 3.93306 9.18306C3.81585 9.30027 3.75 9.45924 3.75 9.625C3.75 9.79076 3.81585 9.94973 3.93306 10.0669C4.05027 10.1842 4.20924 10.25 4.375 10.25Z" fill="#9A9A9A"/>
<path fill-rule="evenodd" clip-rule="evenodd" d="M4.375 0.09375C4.49932 0.09375 4.61855 0.143136 4.70646 0.231044C4.79436 0.318951 4.84375 0.43818 4.84375 0.5625V1.03938C5.2575 1.03125 5.71312 1.03125 6.21437 1.03125H8.785C9.28687 1.03125 9.7425 1.03125 10.1562 1.03938V0.5625C10.1562 0.43818 10.2056 0.318951 10.2935 0.231044C10.3815 0.143136 10.5007 0.09375 10.625 0.09375C10.7493 0.09375 10.8685 0.143136 10.9565 0.231044C11.0444 0.318951 11.0938 0.43818 11.0938 0.5625V1.07937C11.2562 1.09187 11.41 1.1075 11.5556 1.12688C12.2881 1.22563 12.8812 1.43312 13.3494 1.90062C13.8169 2.36875 14.0244 2.96188 14.1231 3.69438C14.2188 4.40688 14.2188 5.31625 14.2188 6.465V7.785C14.2188 8.93375 14.2188 9.84375 14.1231 10.5556C14.0244 11.2881 13.8169 11.8812 13.3494 12.3494C12.8812 12.8169 12.2881 13.0244 11.5556 13.1231C10.8431 13.2188 9.93375 13.2188 8.785 13.2188H6.215C5.06625 13.2188 4.15625 13.2188 3.44438 13.1231C2.71188 13.0244 2.11875 12.8169 1.65063 12.3494C1.18313 11.8812 0.975625 11.2881 0.876875 10.5556C0.78125 9.84313 0.78125 8.93375 0.78125 7.785V6.465C0.78125 5.31625 0.78125 4.40625 0.876875 3.69438C0.975625 2.96188 1.18313 2.36875 1.65063 1.90062C2.11875 1.43312 2.71188 1.22563 3.44438 1.12688C3.59 1.1075 3.74437 1.09187 3.90625 1.07937V0.5625C3.90625 0.43818 3.95564 0.318951 4.04354 0.231044C4.13145 0.143136 4.25068 0.09375 4.375 0.09375ZM3.56875 2.05625C2.94063 2.14062 2.57812 2.29938 2.31375 2.56375C2.04937 2.82813 1.89063 3.19062 1.80625 3.81937C1.79188 3.92562 1.78 4.03813 1.77 4.15625H13.23C13.22 4.0375 13.2081 3.92563 13.1938 3.81875C13.1094 3.19063 12.9506 2.82813 12.6863 2.56375C12.4219 2.29938 12.0594 2.14062 11.4306 2.05625C10.7887 1.97 9.94187 1.96875 8.75 1.96875H6.25C5.05813 1.96875 4.21188 1.97 3.56875 2.05625ZM1.71875 6.5C1.71875 5.96625 1.71875 5.50187 1.72688 5.09375H13.2731C13.2812 5.50187 13.2812 5.96625 13.2812 6.5V7.75C13.2812 8.94187 13.28 9.78875 13.1938 10.4313C13.1094 11.0594 12.9506 11.4219 12.6863 11.6863C12.4219 11.9506 12.0594 12.1094 11.4306 12.1938C10.7887 12.28 9.94187 12.2812 8.75 12.2812H6.25C5.05813 12.2812 4.21188 12.28 3.56875 12.1938C2.94063 12.1094 2.57812 11.9506 2.31375 11.6863C2.04937 11.4219 1.89063 11.0594 1.80625 10.4306C1.72 9.78875 1.71875 8.94187 1.71875 7.75V6.5Z" fill="#9A9A9A"/>
</svg>
