<svg width="7" height="13" viewBox="0 0 7 13" fill="none" xmlns="http://www.w3.org/2000/svg">
<path d="M4.875 0.796875C4.10836 0.796875 3.37312 1.10142 2.83102 1.64352C2.28892 2.18562 1.98437 2.92086 1.98437 3.6875V5.29687H0.4375C0.36 5.29687 0.296875 5.35938 0.296875 5.4375V7.5625C0.296875 7.64 0.359375 7.70313 0.4375 7.70313H1.98437V12.0625C1.98437 12.14 2.04688 12.2031 2.125 12.2031H4.25C4.3275 12.2031 4.39063 12.1406 4.39063 12.0625V7.70313H5.95125C6.01562 7.70313 6.07187 7.65938 6.0875 7.59688L6.61875 5.47187C6.62398 5.45114 6.62441 5.42948 6.62001 5.40856C6.6156 5.38763 6.60649 5.36798 6.59335 5.35111C6.58021 5.33424 6.5634 5.32058 6.54419 5.31118C6.52498 5.30178 6.50388 5.29689 6.4825 5.29687H4.39063V3.6875C4.39063 3.62389 4.40315 3.5609 4.4275 3.50214C4.45184 3.44337 4.48752 3.38997 4.53249 3.345C4.57747 3.30002 4.63087 3.26434 4.68964 3.24C4.7484 3.21565 4.81139 3.20312 4.875 3.20312H6.5C6.5775 3.20312 6.64062 3.14062 6.64062 3.0625V0.9375C6.64062 0.86 6.57812 0.796875 6.5 0.796875H4.875Z" fill="#999999"/>
</svg>
