<svg width="13" height="11" viewBox="0 0 13 11" fill="none" xmlns="http://www.w3.org/2000/svg">
<path d="M4.05018 10.5C4.97436 10.5309 5.89537 10.3763 6.75877 10.0452C7.62216 9.7141 8.41043 9.2133 9.07699 8.57238C9.74354 7.93146 10.2749 7.16343 10.6395 6.31367C11.0042 5.46392 11.1948 4.54968 11.2002 3.625C11.6237 3.10088 11.9382 2.49739 12.1252 1.85C12.1391 1.79885 12.138 1.74475 12.1219 1.69423C12.1059 1.64371 12.0755 1.59891 12.0346 1.56523C11.9936 1.53154 11.9438 1.51042 11.8911 1.50439C11.8385 1.49836 11.7852 1.50769 11.7377 1.53125C11.5161 1.63791 11.2666 1.67236 11.0245 1.62975C10.7823 1.58714 10.5595 1.46962 10.3877 1.29375C10.1683 1.05348 9.90287 0.859704 9.60721 0.723889C9.31154 0.588075 8.99162 0.512989 8.6664 0.503081C8.34118 0.493173 8.01728 0.548644 7.71389 0.666208C7.41051 0.783771 7.1338 0.961035 6.90018 1.1875C6.5803 1.49728 6.346 1.88455 6.22006 2.31167C6.09412 2.73878 6.08081 3.19122 6.18143 3.625C4.08768 3.75 2.65018 2.75625 1.50018 1.39375C1.46563 1.35462 1.42044 1.32641 1.37012 1.31254C1.3198 1.29868 1.26653 1.29976 1.21682 1.31567C1.16711 1.33158 1.1231 1.36162 1.09018 1.40212C1.05726 1.44262 1.03684 1.49183 1.03143 1.54375C0.812347 2.75901 0.970384 4.01221 1.48431 5.13504C1.99825 6.25787 2.84346 7.19654 3.90643 7.825C3.1937 8.64239 2.19281 9.15291 1.11268 9.25C1.05481 9.25959 1.00139 9.28704 0.959898 9.3285C0.918404 9.36996 0.890912 9.42336 0.881268 9.48122C0.871625 9.53908 0.880314 9.59851 0.906118 9.65118C0.931923 9.70386 0.973551 9.74715 1.02518 9.775C1.96488 10.2446 2.9997 10.4926 4.05018 10.5Z" fill="#999999"/>
</svg>
