<svg width="15" height="15" viewBox="0 0 15 15" fill="none" xmlns="http://www.w3.org/2000/svg">
<path fill-rule="evenodd" clip-rule="evenodd" d="M7.50004 0.78125C6.71267 0.78125 5.95756 1.09403 5.40081 1.65078C4.84406 2.20753 4.53128 2.96264 4.53128 3.75C4.53128 4.53736 4.84406 5.29247 5.40081 5.84922C5.95756 6.40597 6.71267 6.71875 7.50004 6.71875C8.2874 6.71875 9.04251 6.40597 9.59926 5.84922C10.156 5.29247 10.4688 4.53736 10.4688 3.75C10.4688 2.96264 10.156 2.20753 9.59926 1.65078C9.04251 1.09403 8.2874 0.78125 7.50004 0.78125ZM5.46878 3.75C5.46878 3.21128 5.68279 2.69462 6.06372 2.31369C6.44466 1.93276 6.96131 1.71875 7.50004 1.71875C8.03876 1.71875 8.55541 1.93276 8.93635 2.31369C9.31728 2.69462 9.53129 3.21128 9.53129 3.75C9.53129 4.28872 9.31728 4.80538 8.93635 5.18631C8.55541 5.56724 8.03876 5.78125 7.50004 5.78125C6.96131 5.78125 6.44466 5.56724 6.06372 5.18631C5.68279 4.80538 5.46878 4.28872 5.46878 3.75ZM7.50004 7.65625C6.05441 7.65625 4.72191 7.985 3.73503 8.54C2.76253 9.0875 2.03128 9.91625 2.03128 10.9375V11.0012C2.03066 11.7275 2.03003 12.6387 2.82941 13.29C3.22253 13.61 3.77316 13.8381 4.51691 13.9881C5.26191 14.1394 6.23379 14.2188 7.50004 14.2188C8.76629 14.2188 9.73754 14.1394 10.4838 13.9881C11.2275 13.8381 11.7775 13.61 12.1713 13.29C12.9707 12.6387 12.9694 11.7275 12.9688 11.0012V10.9375C12.9688 9.91625 12.2375 9.0875 11.2657 8.54C10.2782 7.985 8.94629 7.65625 7.50004 7.65625ZM2.96878 10.9375C2.96878 10.4056 3.35753 9.82813 4.19441 9.3575C5.01691 8.895 6.18441 8.59375 7.50066 8.59375C8.81566 8.59375 9.98316 8.895 10.8057 9.3575C11.6432 9.82813 12.0313 10.4056 12.0313 10.9375C12.0313 11.755 12.0063 12.215 11.5788 12.5625C11.3475 12.7513 10.96 12.9356 10.2975 13.0694C9.63691 13.2031 8.73379 13.2812 7.50004 13.2812C6.26629 13.2812 5.36253 13.2031 4.70253 13.0694C4.04004 12.9356 3.65253 12.7512 3.42128 12.5631C2.99378 12.215 2.96878 11.755 2.96878 10.9375Z" fill="white"/>
</svg>
